<mxfile host="app.diagrams.net" modified="2024-06-27T10:12:37.998Z" agent="Mozilla/5.0 (Windows NT 10.0; Win64; x64) AppleWebKit/537.36 (KHTML, like Gecko) Chrome/126.0.0.0 Safari/537.36" etag="d-Pbi9Xx1CIE8D900jEj" version="24.6.3" type="device">
  <diagram id="C5RBs43oDa-KdzZeNtuy" name="Page-1">
    <mxGraphModel dx="2295" dy="911" grid="1" gridSize="10" guides="1" tooltips="1" connect="1" arrows="1" fold="1" page="1" pageScale="1" pageWidth="827" pageHeight="1169" math="0" shadow="0">
      <root>
        <mxCell id="WIyWlLk6GJQsqaUBKTNV-0" />
        <mxCell id="WIyWlLk6GJQsqaUBKTNV-1" parent="WIyWlLk6GJQsqaUBKTNV-0" />
        <mxCell id="27ZOZkHxi02sitn72xh4-3" value="" style="edgeStyle=orthogonalEdgeStyle;rounded=0;orthogonalLoop=1;jettySize=auto;html=1;" parent="WIyWlLk6GJQsqaUBKTNV-1" target="27ZOZkHxi02sitn72xh4-2" edge="1">
          <mxGeometry relative="1" as="geometry">
            <mxPoint x="160" y="100.0769230769231" as="sourcePoint" />
          </mxGeometry>
        </mxCell>
        <mxCell id="27ZOZkHxi02sitn72xh4-5" value="" style="edgeStyle=orthogonalEdgeStyle;rounded=0;orthogonalLoop=1;jettySize=auto;html=1;" parent="WIyWlLk6GJQsqaUBKTNV-1" target="27ZOZkHxi02sitn72xh4-4" edge="1">
          <mxGeometry relative="1" as="geometry">
            <mxPoint x="280" y="100.0769230769231" as="sourcePoint" />
          </mxGeometry>
        </mxCell>
        <mxCell id="27ZOZkHxi02sitn72xh4-7" value="" style="edgeStyle=orthogonalEdgeStyle;rounded=0;orthogonalLoop=1;jettySize=auto;html=1;" parent="WIyWlLk6GJQsqaUBKTNV-1" source="27ZOZkHxi02sitn72xh4-2" target="27ZOZkHxi02sitn72xh4-6" edge="1">
          <mxGeometry relative="1" as="geometry" />
        </mxCell>
        <mxCell id="27ZOZkHxi02sitn72xh4-2" value="Place finger" style="rounded=1;whiteSpace=wrap;html=1;fontSize=12;glass=0;strokeWidth=1;shadow=0;" parent="WIyWlLk6GJQsqaUBKTNV-1" vertex="1">
          <mxGeometry x="-70" y="220" width="120" height="40" as="geometry" />
        </mxCell>
        <mxCell id="27ZOZkHxi02sitn72xh4-26" value="" style="edgeStyle=orthogonalEdgeStyle;rounded=0;orthogonalLoop=1;jettySize=auto;html=1;" parent="WIyWlLk6GJQsqaUBKTNV-1" source="27ZOZkHxi02sitn72xh4-4" target="27ZOZkHxi02sitn72xh4-25" edge="1">
          <mxGeometry relative="1" as="geometry" />
        </mxCell>
        <mxCell id="27ZOZkHxi02sitn72xh4-28" value="" style="edgeStyle=orthogonalEdgeStyle;rounded=0;orthogonalLoop=1;jettySize=auto;html=1;" parent="WIyWlLk6GJQsqaUBKTNV-1" source="27ZOZkHxi02sitn72xh4-4" target="27ZOZkHxi02sitn72xh4-27" edge="1">
          <mxGeometry relative="1" as="geometry" />
        </mxCell>
        <mxCell id="27ZOZkHxi02sitn72xh4-30" value="" style="edgeStyle=orthogonalEdgeStyle;rounded=0;orthogonalLoop=1;jettySize=auto;html=1;" parent="WIyWlLk6GJQsqaUBKTNV-1" source="27ZOZkHxi02sitn72xh4-4" target="27ZOZkHxi02sitn72xh4-29" edge="1">
          <mxGeometry relative="1" as="geometry" />
        </mxCell>
        <mxCell id="27ZOZkHxi02sitn72xh4-4" value="Read Data from sensor" style="rounded=1;whiteSpace=wrap;html=1;fontSize=12;glass=0;strokeWidth=1;shadow=0;" parent="WIyWlLk6GJQsqaUBKTNV-1" vertex="1">
          <mxGeometry x="414" y="200" width="120" height="40" as="geometry" />
        </mxCell>
        <mxCell id="27ZOZkHxi02sitn72xh4-9" value="" style="edgeStyle=orthogonalEdgeStyle;rounded=0;orthogonalLoop=1;jettySize=auto;html=1;" parent="WIyWlLk6GJQsqaUBKTNV-1" source="27ZOZkHxi02sitn72xh4-6" target="27ZOZkHxi02sitn72xh4-8" edge="1">
          <mxGeometry relative="1" as="geometry" />
        </mxCell>
        <mxCell id="27ZOZkHxi02sitn72xh4-6" value="Get ID by finger" style="rounded=1;whiteSpace=wrap;html=1;fontSize=12;glass=0;strokeWidth=1;shadow=0;" parent="WIyWlLk6GJQsqaUBKTNV-1" vertex="1">
          <mxGeometry x="-70" y="340" width="120" height="40" as="geometry" />
        </mxCell>
        <mxCell id="27ZOZkHxi02sitn72xh4-14" value="" style="edgeStyle=orthogonalEdgeStyle;rounded=0;orthogonalLoop=1;jettySize=auto;html=1;" parent="WIyWlLk6GJQsqaUBKTNV-1" source="27ZOZkHxi02sitn72xh4-8" edge="1">
          <mxGeometry relative="1" as="geometry">
            <mxPoint x="-150" y="480" as="targetPoint" />
          </mxGeometry>
        </mxCell>
        <mxCell id="27ZOZkHxi02sitn72xh4-8" value="ESP 8266&amp;nbsp;" style="rounded=1;whiteSpace=wrap;html=1;fontSize=12;glass=0;strokeWidth=1;shadow=0;" parent="WIyWlLk6GJQsqaUBKTNV-1" vertex="1">
          <mxGeometry x="-70" y="460" width="120" height="40" as="geometry" />
        </mxCell>
        <mxCell id="27ZOZkHxi02sitn72xh4-10" value="Post student ID, Name Date/time" style="rounded=1;whiteSpace=wrap;html=1;fontSize=12;glass=0;strokeWidth=1;shadow=0;" parent="WIyWlLk6GJQsqaUBKTNV-1" vertex="1">
          <mxGeometry x="-470" y="575" width="120" height="40" as="geometry" />
        </mxCell>
        <mxCell id="27ZOZkHxi02sitn72xh4-17" value="" style="edgeStyle=orthogonalEdgeStyle;rounded=0;orthogonalLoop=1;jettySize=auto;html=1;" parent="WIyWlLk6GJQsqaUBKTNV-1" target="27ZOZkHxi02sitn72xh4-16" edge="1">
          <mxGeometry relative="1" as="geometry">
            <mxPoint x="-270" y="480" as="sourcePoint" />
          </mxGeometry>
        </mxCell>
        <mxCell id="27ZOZkHxi02sitn72xh4-23" value="" style="edgeStyle=orthogonalEdgeStyle;rounded=0;orthogonalLoop=1;jettySize=auto;html=1;" parent="WIyWlLk6GJQsqaUBKTNV-1" target="27ZOZkHxi02sitn72xh4-22" edge="1">
          <mxGeometry relative="1" as="geometry">
            <mxPoint x="-210" y="500" as="sourcePoint" />
            <Array as="points">
              <mxPoint x="-220" y="500" />
            </Array>
          </mxGeometry>
        </mxCell>
        <mxCell id="27ZOZkHxi02sitn72xh4-15" value="Google Sheet" style="text;html=1;align=center;verticalAlign=middle;resizable=0;points=[];autosize=1;strokeColor=none;fillColor=none;" parent="WIyWlLk6GJQsqaUBKTNV-1" vertex="1">
          <mxGeometry x="-160" y="450" width="100" height="30" as="geometry" />
        </mxCell>
        <mxCell id="KOnPDOqtZsFmsv6HlYjx-1" value="" style="edgeStyle=orthogonalEdgeStyle;rounded=0;orthogonalLoop=1;jettySize=auto;html=1;" edge="1" parent="WIyWlLk6GJQsqaUBKTNV-1" source="27ZOZkHxi02sitn72xh4-16">
          <mxGeometry relative="1" as="geometry">
            <mxPoint x="-410" y="580" as="targetPoint" />
          </mxGeometry>
        </mxCell>
        <mxCell id="27ZOZkHxi02sitn72xh4-16" value="StudentID" style="rounded=1;whiteSpace=wrap;html=1;fontSize=12;glass=0;strokeWidth=1;shadow=0;" parent="WIyWlLk6GJQsqaUBKTNV-1" vertex="1">
          <mxGeometry x="-470" y="460" width="120" height="40" as="geometry" />
        </mxCell>
        <mxCell id="27ZOZkHxi02sitn72xh4-18" value="Yes" style="text;html=1;align=center;verticalAlign=middle;resizable=0;points=[];autosize=1;strokeColor=none;fillColor=none;" parent="WIyWlLk6GJQsqaUBKTNV-1" vertex="1">
          <mxGeometry x="-330" y="448" width="40" height="30" as="geometry" />
        </mxCell>
        <mxCell id="27ZOZkHxi02sitn72xh4-22" value="OLED print: &quot;ERROR&quot;" style="rounded=1;whiteSpace=wrap;html=1;fontSize=12;glass=0;strokeWidth=1;shadow=0;" parent="WIyWlLk6GJQsqaUBKTNV-1" vertex="1">
          <mxGeometry x="-270" y="630" width="120" height="40" as="geometry" />
        </mxCell>
        <mxCell id="27ZOZkHxi02sitn72xh4-24" value="No" style="text;html=1;align=center;verticalAlign=middle;resizable=0;points=[];autosize=1;strokeColor=none;fillColor=none;" parent="WIyWlLk6GJQsqaUBKTNV-1" vertex="1">
          <mxGeometry x="-210" y="545" width="40" height="30" as="geometry" />
        </mxCell>
        <mxCell id="27ZOZkHxi02sitn72xh4-32" value="" style="edgeStyle=orthogonalEdgeStyle;rounded=0;orthogonalLoop=1;jettySize=auto;html=1;" parent="WIyWlLk6GJQsqaUBKTNV-1" source="27ZOZkHxi02sitn72xh4-25" edge="1">
          <mxGeometry relative="1" as="geometry">
            <mxPoint x="199.92000000000002" y="362.4969230769231" as="sourcePoint" />
            <mxPoint x="279.9969230769229" y="567.42" as="targetPoint" />
            <Array as="points">
              <mxPoint x="240" y="363" />
              <mxPoint x="240" y="567" />
            </Array>
          </mxGeometry>
        </mxCell>
        <mxCell id="27ZOZkHxi02sitn72xh4-41" value="" style="edgeStyle=orthogonalEdgeStyle;rounded=0;orthogonalLoop=1;jettySize=auto;html=1;" parent="WIyWlLk6GJQsqaUBKTNV-1" source="27ZOZkHxi02sitn72xh4-27" target="27ZOZkHxi02sitn72xh4-40" edge="1">
          <mxGeometry relative="1" as="geometry" />
        </mxCell>
        <mxCell id="27ZOZkHxi02sitn72xh4-27" value="Air Sensor" style="rounded=1;whiteSpace=wrap;html=1;fontSize=12;glass=0;strokeWidth=1;shadow=0;" parent="WIyWlLk6GJQsqaUBKTNV-1" vertex="1">
          <mxGeometry x="414" y="320" width="120" height="40" as="geometry" />
        </mxCell>
        <mxCell id="27ZOZkHxi02sitn72xh4-60" value="" style="edgeStyle=orthogonalEdgeStyle;rounded=0;orthogonalLoop=1;jettySize=auto;html=1;entryX=1;entryY=0.75;entryDx=0;entryDy=0;" parent="WIyWlLk6GJQsqaUBKTNV-1" source="27ZOZkHxi02sitn72xh4-29" target="27ZOZkHxi02sitn72xh4-40" edge="1">
          <mxGeometry relative="1" as="geometry">
            <mxPoint x="740" y="620" as="targetPoint" />
          </mxGeometry>
        </mxCell>
        <mxCell id="27ZOZkHxi02sitn72xh4-62" value="" style="edgeStyle=orthogonalEdgeStyle;rounded=0;orthogonalLoop=1;jettySize=auto;html=1;" parent="WIyWlLk6GJQsqaUBKTNV-1" source="27ZOZkHxi02sitn72xh4-29" target="27ZOZkHxi02sitn72xh4-61" edge="1">
          <mxGeometry relative="1" as="geometry" />
        </mxCell>
        <mxCell id="27ZOZkHxi02sitn72xh4-29" value="Pir Sensor" style="rounded=1;whiteSpace=wrap;html=1;fontSize=12;glass=0;strokeWidth=1;shadow=0;" parent="WIyWlLk6GJQsqaUBKTNV-1" vertex="1">
          <mxGeometry x="680" y="320.5" width="120" height="40" as="geometry" />
        </mxCell>
        <mxCell id="27ZOZkHxi02sitn72xh4-31" value="Alarm and led on&lt;br&gt;Warning!!" style="rounded=1;whiteSpace=wrap;html=1;fontSize=12;glass=0;strokeWidth=1;shadow=0;" parent="WIyWlLk6GJQsqaUBKTNV-1" vertex="1">
          <mxGeometry x="280" y="545" width="120" height="40" as="geometry" />
        </mxCell>
        <mxCell id="27ZOZkHxi02sitn72xh4-40" value="Normal" style="rounded=1;whiteSpace=wrap;html=1;fontSize=12;glass=0;strokeWidth=1;shadow=0;" parent="WIyWlLk6GJQsqaUBKTNV-1" vertex="1">
          <mxGeometry x="414" y="615" width="120" height="40" as="geometry" />
        </mxCell>
        <mxCell id="27ZOZkHxi02sitn72xh4-46" value="" style="line;strokeWidth=2;direction=south;html=1;" parent="WIyWlLk6GJQsqaUBKTNV-1" vertex="1">
          <mxGeometry x="195" y="370" width="10" height="260" as="geometry" />
        </mxCell>
        <mxCell id="27ZOZkHxi02sitn72xh4-50" value="" style="edgeStyle=orthogonalEdgeStyle;rounded=0;orthogonalLoop=1;jettySize=auto;html=1;" parent="WIyWlLk6GJQsqaUBKTNV-1" source="27ZOZkHxi02sitn72xh4-49" target="27ZOZkHxi02sitn72xh4-40" edge="1">
          <mxGeometry relative="1" as="geometry" />
        </mxCell>
        <mxCell id="27ZOZkHxi02sitn72xh4-49" value="" style="line;strokeWidth=2;html=1;" parent="WIyWlLk6GJQsqaUBKTNV-1" vertex="1">
          <mxGeometry x="195" y="630" width="160" height="10" as="geometry" />
        </mxCell>
        <mxCell id="27ZOZkHxi02sitn72xh4-56" value="&#xa;&lt;span style=&quot;color: rgb(0, 0, 0); font-family: Helvetica; font-size: 12px; font-style: normal; font-variant-ligatures: normal; font-variant-caps: normal; font-weight: 400; letter-spacing: normal; orphans: 2; text-align: center; text-indent: 0px; text-transform: none; widows: 2; word-spacing: 0px; -webkit-text-stroke-width: 0px; white-space: normal; background-color: rgb(251, 251, 251); text-decoration-thickness: initial; text-decoration-style: initial; text-decoration-color: initial; display: inline !important; float: none;&quot;&gt;Check ID&lt;/span&gt;&#xa;&#xa;" style="html=1;whiteSpace=wrap;aspect=fixed;shape=isoRectangle;" parent="WIyWlLk6GJQsqaUBKTNV-1" vertex="1">
          <mxGeometry x="-285" y="439.5" width="135" height="81" as="geometry" />
        </mxCell>
        <mxCell id="27ZOZkHxi02sitn72xh4-61" value="Turn on the led, air condition" style="rounded=1;whiteSpace=wrap;html=1;fontSize=12;glass=0;strokeWidth=1;shadow=0;" parent="WIyWlLk6GJQsqaUBKTNV-1" vertex="1">
          <mxGeometry x="680" y="430" width="120" height="40" as="geometry" />
        </mxCell>
        <mxCell id="27ZOZkHxi02sitn72xh4-63" value="" style="edgeStyle=orthogonalEdgeStyle;rounded=0;orthogonalLoop=1;jettySize=auto;html=1;" parent="WIyWlLk6GJQsqaUBKTNV-1" target="27ZOZkHxi02sitn72xh4-25" edge="1">
          <mxGeometry relative="1" as="geometry">
            <mxPoint x="199.92000000000002" y="362.4969230769231" as="sourcePoint" />
            <mxPoint x="279.9969230769229" y="567.42" as="targetPoint" />
            <Array as="points" />
          </mxGeometry>
        </mxCell>
        <mxCell id="27ZOZkHxi02sitn72xh4-25" value="Fire sensor" style="rounded=1;whiteSpace=wrap;html=1;fontSize=12;glass=0;strokeWidth=1;shadow=0;" parent="WIyWlLk6GJQsqaUBKTNV-1" vertex="1">
          <mxGeometry x="140" y="320" width="120" height="40" as="geometry" />
        </mxCell>
        <mxCell id="27ZOZkHxi02sitn72xh4-71" style="edgeStyle=orthogonalEdgeStyle;rounded=0;orthogonalLoop=1;jettySize=auto;html=1;exitX=1;exitY=0.5;exitDx=0;exitDy=0;exitPerimeter=0;entryX=1;entryY=0.5;entryDx=0;entryDy=0;" parent="WIyWlLk6GJQsqaUBKTNV-1" source="27ZOZkHxi02sitn72xh4-64" target="27ZOZkHxi02sitn72xh4-31" edge="1">
          <mxGeometry relative="1" as="geometry">
            <Array as="points">
              <mxPoint x="435" y="565" />
            </Array>
          </mxGeometry>
        </mxCell>
        <mxCell id="27ZOZkHxi02sitn72xh4-64" value="" style="line;strokeWidth=2;direction=south;html=1;" parent="WIyWlLk6GJQsqaUBKTNV-1" vertex="1">
          <mxGeometry x="430" y="360.5" width="10" height="199.5" as="geometry" />
        </mxCell>
        <mxCell id="27ZOZkHxi02sitn72xh4-72" value="Have&lt;div&gt;&amp;nbsp;fire&lt;/div&gt;" style="text;html=1;align=center;verticalAlign=middle;resizable=0;points=[];autosize=1;strokeColor=none;fillColor=none;" parent="WIyWlLk6GJQsqaUBKTNV-1" vertex="1">
          <mxGeometry x="240" y="425" width="50" height="40" as="geometry" />
        </mxCell>
        <mxCell id="27ZOZkHxi02sitn72xh4-73" value="Have&amp;nbsp;&lt;div&gt;&amp;nbsp;smoke&lt;/div&gt;" style="text;html=1;align=center;verticalAlign=middle;resizable=0;points=[];autosize=1;strokeColor=none;fillColor=none;rotation=0;" parent="WIyWlLk6GJQsqaUBKTNV-1" vertex="1">
          <mxGeometry x="380" y="425" width="60" height="40" as="geometry" />
        </mxCell>
        <mxCell id="27ZOZkHxi02sitn72xh4-74" value="Start" style="ellipse;whiteSpace=wrap;html=1;" parent="WIyWlLk6GJQsqaUBKTNV-1" vertex="1">
          <mxGeometry x="160" y="60" width="120" height="80" as="geometry" />
        </mxCell>
        <mxCell id="27ZOZkHxi02sitn72xh4-75" value="End" style="ellipse;whiteSpace=wrap;html=1;" parent="WIyWlLk6GJQsqaUBKTNV-1" vertex="1">
          <mxGeometry x="100" y="760" width="120" height="80" as="geometry" />
        </mxCell>
        <mxCell id="MefRIQQlF1goCmdoYLmJ-0" value="Have people&lt;div&gt;&amp;nbsp;in class&lt;/div&gt;" style="text;html=1;align=center;verticalAlign=middle;resizable=0;points=[];autosize=1;strokeColor=none;fillColor=none;" parent="WIyWlLk6GJQsqaUBKTNV-1" vertex="1">
          <mxGeometry x="730" y="370" width="90" height="40" as="geometry" />
        </mxCell>
        <mxCell id="KOnPDOqtZsFmsv6HlYjx-5" style="edgeStyle=orthogonalEdgeStyle;rounded=0;orthogonalLoop=1;jettySize=auto;html=1;exitX=0;exitY=0.5;exitDx=0;exitDy=0;exitPerimeter=0;entryX=0;entryY=0.5;entryDx=0;entryDy=0;" edge="1" parent="WIyWlLk6GJQsqaUBKTNV-1" source="KOnPDOqtZsFmsv6HlYjx-4" target="27ZOZkHxi02sitn72xh4-2">
          <mxGeometry relative="1" as="geometry" />
        </mxCell>
        <mxCell id="KOnPDOqtZsFmsv6HlYjx-4" value="" style="line;strokeWidth=2;html=1;" vertex="1" parent="WIyWlLk6GJQsqaUBKTNV-1">
          <mxGeometry x="-630" y="585" width="160" height="10" as="geometry" />
        </mxCell>
      </root>
    </mxGraphModel>
  </diagram>
</mxfile>
